<svg xmlns="http://www.w3.org/2000/svg" width="69.806" height="55.652" viewBox="0 0 69.806 55.652" fill="none">
  <path d="M 45.992 20.196 C 48.754 20.196 50.992 17.958 50.992 15.196 C 50.992 12.435 48.754 10.196 45.992 10.196 C 43.231 10.196 40.992 12.435 40.992 15.196 C 40.992 17.958 43.231 20.196 45.992 20.196 Z" fill="currentColor" fill-rule="nonzero"></path>
  <path d="M 0 10.697 C 0 4.789 4.789 0 10.697 0 L 50.918 0 C 56.825 0 61.614 4.789 61.614 10.697 L 61.614 37.33 C 61.614 43.237 56.825 48.026 50.918 48.026 L 10.697 48.026 C 4.789 48.026 0 43.237 0 37.33 L 0 10.697 Z M 10.697 4 C 6.998 4 4 6.998 4 10.697 L 4 37.33 C 4 38.037 4.11 38.718 4.313 39.358 L 16.068 21.137 C 18.276 17.715 23.3 17.77 25.432 21.24 L 34.779 36.452 L 40.266 28.079 C 42.475 24.708 47.432 24.755 49.578 28.166 L 53.995 35.191 L 57.048 40.029 C 57.412 39.203 57.614 38.29 57.614 37.33 L 57.614 10.697 C 57.614 6.998 54.616 4 50.918 4 L 10.697 4 Z M 54.273 43.126 L 46.192 30.296 C 45.597 29.35 44.224 29.338 43.612 30.272 L 34.597 44.026 L 50.918 44.026 C 52.14 44.026 53.286 43.698 54.273 43.126 Z M 29.815 44.026 L 32.356 40.149 L 22.024 23.334 C 21.433 22.373 20.041 22.357 19.429 23.306 L 6.846 42.809 C 7.935 43.576 9.263 44.026 10.697 44.026 L 29.815 44.026 Z" fill="currentColor" fill-rule="evenodd"></path>
  <path d="M 69.806 20.768 C 69.806 19.663 68.911 18.768 67.806 18.768 C 66.702 18.768 65.806 19.663 65.806 20.768 L 65.806 42.781 C 65.806 47.68 61.835 51.652 56.936 51.652 L 21.063 51.652 C 19.958 51.652 19.063 52.547 19.063 53.652 C 19.063 54.756 19.958 55.652 21.063 55.652 L 56.936 55.652 C 64.044 55.652 69.806 49.889 69.806 42.781 L 69.806 20.768 Z" fill="currentColor" fill-rule="nonzero"></path>
</svg>