<svg xmlns="http://www.w3.org/2000/svg" width="72" height="64" viewBox="0 0 72 64" fill="none">
  <path d="M 62 0 C 67.523 0 72 4.477 72 10 L 72 54 C 72 59.523 67.523 64 62 64 L 10 64 C 4.477 64 0 59.523 0 54 L 0 10 C 0 4.477 4.477 0 10 0 L 62 0 Z M 4 20 L 4 54 C 4 57.314 6.686 60 10 60 L 62 60 C 65.314 60 68 57.314 68 54 L 68 20 L 4 20 Z M 10 4 C 6.686 4 4 6.686 4 10 L 4 16 L 68 16 L 68 10 C 68 6.686 65.314 4 62 4 L 10 4 Z M 60.5 7.5 C 61.881 7.5 63 8.619 63 10 C 63 11.381 61.881 12.5 60.5 12.5 C 59.119 12.5 58 11.381 58 10 C 58 8.619 59.119 7.5 60.5 7.5 Z" fill="currentColor" fill-rule="nonzero"></path>
</svg>