<svg xmlns="http://www.w3.org/2000/svg" width="67.521" height="59.813" viewBox="0 0 67.521 59.813" fill="none">
  <path d="M 48.142 0 C 50.903 0 53.141 2.239 53.141 5 C 53.141 7.761 50.902 10 48.141 10 C 47.951 10 47.765 9.988 47.581 9.968 L 42.242 19.215 C 44.896 21.323 46.746 24.397 47.262 27.906 L 57.938 27.906 C 58.71 26.141 60.471 24.906 62.521 24.906 C 65.283 24.906 67.521 27.145 67.521 29.906 C 67.521 32.668 65.283 34.906 62.521 34.906 C 60.471 34.906 58.71 33.672 57.938 31.906 L 47.262 31.906 C 46.746 35.415 44.897 38.49 42.243 40.598 L 47.581 49.845 C 47.765 49.824 47.952 49.813 48.142 49.813 C 50.903 49.814 53.141 52.052 53.141 54.813 C 53.141 57.575 50.902 59.813 48.141 59.813 C 45.379 59.813 43.141 57.575 43.141 54.813 C 43.141 53.702 43.504 52.675 44.118 51.845 L 38.781 42.601 C 37.227 43.216 35.534 43.555 33.761 43.555 C 31.988 43.555 30.293 43.216 28.739 42.601 L 23.402 51.844 C 24.017 52.674 24.381 53.701 24.381 54.813 C 24.381 57.575 22.142 59.813 19.381 59.813 C 16.619 59.813 14.381 57.575 14.381 54.813 C 14.381 52.052 16.619 49.813 19.381 49.813 C 19.569 49.813 19.755 49.824 19.938 49.845 L 25.277 40.598 C 22.624 38.49 20.775 35.415 20.26 31.906 L 9.583 31.906 C 8.811 33.672 7.05 34.906 5 34.906 C 2.239 34.906 0 32.668 0 29.906 C 0 27.145 2.239 24.906 5 24.906 C 7.05 24.906 8.811 26.141 9.583 27.906 L 20.26 27.906 C 20.775 24.398 22.624 21.323 25.277 19.215 L 19.938 9.968 C 19.755 9.988 19.569 10 19.381 10 C 16.619 10 14.381 7.761 14.381 5 C 14.381 2.239 16.619 0 19.381 0 C 22.142 0 24.381 2.239 24.381 5 C 24.381 6.112 24.017 7.138 23.403 7.969 L 28.739 17.211 C 30.293 16.596 31.988 16.259 33.761 16.259 C 35.533 16.259 37.227 16.596 38.78 17.211 L 44.117 7.967 C 43.504 7.137 43.141 6.111 43.141 5 C 43.141 2.239 45.38 0 48.142 0 Z M 33.761 20.259 C 28.433 20.259 24.114 24.578 24.113 29.906 C 24.113 35.234 28.433 39.554 33.761 39.555 C 39.089 39.554 43.409 35.234 43.409 29.906 C 43.409 24.578 39.089 20.259 33.761 20.259 Z" fill="currentColor" fill-rule="nonzero"></path>
</svg>