<svg xmlns="http://www.w3.org/2000/svg" width="56" height="64" viewBox="0 0 56 64" fill="none">
  <path d="M 27.427 0 C 29.822 0 32.13 0.929 33.838 2.597 L 53.32 21.618 C 55.03 23.288 56 25.562 56 27.944 L 56 55.077 C 56 60.05 51.884 64 46.909 64 L 9.091 64 C 4.116 64 0 60.05 0 55.077 L 0 8.923 C 0 3.95 4.116 0 9.091 0 L 27.427 0 Z M 9.091 4 C 6.234 4 4 6.249 4 8.923 C 4 8.923 4 52.403 4 55.077 C 4 57.751 6.234 60 9.091 60 L 46.909 60 C 49.766 60 52 57.751 52 55.077 L 52 27.944 C 52 26.655 51.476 25.408 50.526 24.48 L 31.043 5.459 C 30.092 4.53 28.792 4 27.427 4 L 9.091 4 Z M 40.197 27.604 C 40.264 27.611 40.329 27.622 40.394 27.635 C 40.395 27.635 40.395 27.636 40.396 27.636 L 40.564 27.678 C 40.567 27.679 40.57 27.68 40.573 27.681 C 40.606 27.691 40.638 27.702 40.67 27.714 C 40.697 27.724 40.724 27.733 40.75 27.744 C 40.779 27.756 40.808 27.77 40.837 27.783 C 40.866 27.797 40.895 27.809 40.923 27.824 C 40.949 27.838 40.975 27.854 41.001 27.869 C 41.03 27.886 41.058 27.903 41.086 27.921 C 41.11 27.936 41.132 27.953 41.155 27.97 C 41.183 27.99 41.211 28.009 41.237 28.03 C 41.258 28.047 41.279 28.065 41.299 28.082 C 41.327 28.106 41.355 28.131 41.382 28.157 C 41.399 28.174 41.417 28.191 41.434 28.209 C 41.459 28.236 41.484 28.263 41.508 28.291 C 41.525 28.311 41.541 28.33 41.558 28.351 C 41.582 28.381 41.605 28.413 41.627 28.444 C 41.64 28.462 41.652 28.48 41.664 28.498 C 41.686 28.532 41.707 28.567 41.728 28.603 C 41.739 28.623 41.752 28.643 41.763 28.664 C 41.781 28.699 41.797 28.735 41.813 28.771 C 41.823 28.792 41.834 28.813 41.843 28.835 C 41.858 28.871 41.87 28.909 41.883 28.946 C 41.891 28.969 41.899 28.992 41.906 29.015 C 41.919 29.055 41.929 29.096 41.938 29.138 C 41.943 29.159 41.949 29.18 41.953 29.202 C 41.961 29.24 41.966 29.279 41.972 29.318 C 41.984 29.409 41.993 29.501 41.993 29.595 L 41.993 34.395 C 41.993 35.499 41.098 36.395 39.993 36.395 C 38.889 36.394 37.993 35.499 37.993 34.395 L 37.993 31.595 L 29.995 31.595 L 29.995 51.592 L 32.794 51.592 C 33.898 51.592 34.794 52.487 34.794 53.592 C 34.794 54.696 33.898 55.592 32.794 55.592 L 23.195 55.592 C 22.091 55.592 21.195 54.696 21.195 53.592 C 21.195 52.487 22.091 51.592 23.195 51.592 L 25.995 51.592 L 25.995 31.595 L 17.996 31.595 L 17.996 34.395 C 17.996 35.499 17.101 36.395 15.996 36.395 C 14.892 36.395 13.996 35.499 13.996 34.395 L 13.996 29.595 C 13.996 28.766 14.5 28.056 15.218 27.752 C 15.286 27.723 15.356 27.699 15.428 27.678 C 15.608 27.624 15.799 27.595 15.996 27.595 L 39.993 27.595 C 40.062 27.595 40.13 27.598 40.197 27.604 Z" fill="currentColor" fill-rule="nonzero"></path>
</svg>