<svg xmlns="http://www.w3.org/2000/svg" width="70.043" height="68.881" viewBox="0 0 70.043 68.881" fill="none">
  <path d="M 65.946 23.269 C 67 22.939 68.123 23.526 68.453 24.58 C 69.488 27.886 70.044 31.402 70.044 35.043 C 70.044 49.328 61.485 61.61 49.223 67.051 L 58.002 69.559 C 59.064 69.862 59.678 70.969 59.375 72.031 C 59.071 73.093 57.965 73.708 56.903 73.404 L 43.305 69.52 L 43.111 69.454 C 42.17 69.079 41.647 68.044 41.932 67.048 L 45.816 53.449 C 46.12 52.387 47.226 51.773 48.288 52.076 C 49.35 52.38 49.965 53.486 49.662 54.548 L 47.068 63.624 C 58.219 58.927 66.044 47.896 66.044 35.043 C 66.044 31.812 65.55 28.699 64.635 25.775 C 64.305 24.721 64.892 23.598 65.946 23.269 Z M 1.809 23.863 C 2.647 23.293 3.797 23.44 4.463 24.232 L 13.561 35.06 C 14.271 35.905 14.162 37.166 13.316 37.877 C 12.471 38.587 11.21 38.478 10.499 37.633 L 4.364 30.332 C 3.433 36.357 4.264 42.715 7.137 48.613 C 11.208 56.973 18.538 62.68 26.859 64.95 C 27.925 65.241 28.553 66.341 28.263 67.406 C 27.972 68.472 26.871 69.1 25.806 68.81 C 16.42 66.248 8.138 59.804 3.541 50.365 C 0.395 43.905 -0.584 36.947 0.323 30.322 L -6.608 36.147 C -7.454 36.858 -8.716 36.748 -9.427 35.902 C -10.137 35.057 -10.027 33.795 -9.182 33.085 L 1.646 23.987 L 1.809 23.863 Z M 54.147 -5.146 C 55.222 -5.4 56.3 -4.736 56.554 -3.661 L 59.807 10.103 L 59.844 10.304 C 59.976 11.309 59.328 12.271 58.32 12.509 L 44.558 15.762 C 43.483 16.016 42.405 15.35 42.151 14.275 C 41.897 13.2 42.563 12.123 43.638 11.869 L 52.805 9.702 C 47.745 6.112 41.566 4 34.888 4 C 25.59 4 17.249 8.091 11.564 14.578 C 10.836 15.409 9.573 15.492 8.742 14.764 C 7.912 14.036 7.829 12.772 8.557 11.941 C 14.969 4.625 24.39 0 34.888 0 C 42.272 0 49.126 2.29 54.773 6.196 L 52.661 -2.74 C 52.407 -3.815 53.073 -4.892 54.147 -5.146 Z" fill="currentColor" fill-rule="nonzero"></path>
</svg>