<svg xmlns="http://www.w3.org/2000/svg" width="115.960" height="105.797" viewBox="0 0 115.960 105.797" fill="none">
  <path d="M 97.899 0.612 C 106.891 -2.118 115.96 4.619 115.96 14.01 L 115.96 63.029 C 115.96 72.438 106.873 79.156 97.888 76.427 L 97.887 76.427 L 60.826 65.161 L 69.248 84.505 L 69.264 84.544 C 71.065 88.802 70.946 92.962 69.364 96.502 C 67.82 99.959 65.005 102.556 61.827 104.1 C 58.421 105.754 54.334 106.327 50.469 105.241 C 46.495 104.125 43.026 101.326 40.992 96.803 C 39.709 93.949 35.788 85.01 32.201 76.813 C 30.405 72.709 28.689 68.78 27.421 65.879 C 27.026 64.975 26.675 64.17 26.378 63.49 L 24.98 63.49 C 11.192 63.49 0 52.299 0 38.511 C 0 24.722 11.191 13.53 24.98 13.53 L 55.273 13.53 L 97.899 0.611 L 97.899 0.612 Z M 39.53 73.605 C 43.127 81.824 47.026 90.714 48.288 93.521 C 49.369 95.925 50.982 97.076 52.631 97.539 C 54.388 98.032 56.465 97.811 58.332 96.904 C 60.063 96.063 61.388 94.744 62.061 93.238 C 62.694 91.821 62.871 89.981 61.905 87.684 L 51.378 63.502 L 35.112 63.502 C 36.335 66.3 37.9 69.88 39.53 73.605 Z M 107.96 14.01 C 107.96 9.982 104.07 7.098 100.223 8.267 L 100.22 8.268 L 59.96 20.469 L 59.96 56.537 L 100.213 68.772 L 100.574 68.87 C 104.307 69.761 107.96 66.934 107.96 63.029 L 107.96 14.01 Z M 24.98 21.53 C 15.61 21.53 8 29.14 8 38.511 C 8 47.881 15.61 55.49 24.98 55.49 L 51.96 55.49 L 51.96 21.53 L 24.98 21.53 Z" fill="currentColor" fill-rule="nonzero"></path>
</svg>