<svg xmlns="http://www.w3.org/2000/svg" width="63.526" height="63.501" viewBox="0 0 63.526 63.501" fill="none">
  <path d="M 55.526 0 C 59.945 0 63.526 3.582 63.526 8 L 63.526 18.604 C 63.526 23.022 59.944 26.604 55.526 26.604 L 24.404 26.604 C 19.986 26.604 16.405 23.022 16.404 18.604 L 16.404 15.274 L 8 15.274 C 5.791 15.274 4 17.065 4 19.274 L 4 44.198 L 4.005 44.404 C 4.112 46.518 5.86 48.198 8 48.198 L 16.404 48.198 L 16.404 44.897 C 16.404 40.479 19.986 36.897 24.404 36.897 L 55.526 36.897 C 59.945 36.897 63.526 40.479 63.526 44.897 L 63.526 55.501 C 63.526 59.919 59.944 63.501 55.526 63.501 L 24.404 63.501 C 19.986 63.501 16.405 59.919 16.404 55.501 L 16.404 52.198 L 8 52.198 C 3.72 52.198 0.225 48.837 0.011 44.609 L 0 44.198 L 0 19.274 C 0 14.856 3.582 11.274 8 11.274 L 16.404 11.274 L 16.404 8 C 16.404 3.582 19.986 0 24.404 0 L 55.526 0 Z M 24.404 40.897 C 22.195 40.897 20.404 42.688 20.404 44.897 L 20.404 55.501 C 20.405 57.71 22.195 59.501 24.404 59.501 L 55.526 59.501 C 57.735 59.501 59.526 57.71 59.526 55.501 L 59.526 44.897 C 59.526 42.688 57.736 40.897 55.526 40.897 L 24.404 40.897 Z M 24.404 4 C 22.195 4 20.404 5.791 20.404 8 L 20.404 18.604 C 20.405 20.812 22.195 22.604 24.404 22.604 L 55.526 22.604 C 57.735 22.604 59.526 20.812 59.526 18.604 L 59.526 8 C 59.526 5.791 57.736 4 55.526 4 L 24.404 4 Z" fill="currentColor" fill-rule="nonzero"></path>
</svg>