<svg xmlns="http://www.w3.org/2000/svg" width="70.448" height="70.504" viewBox="0 0 70.448 70.504" fill="none">
  <path d="M 19.156 42.239 C 21.322 40.242 24.766 42.234 24.118 45.102 L 22.474 52.397 C 22.258 53.363 22.528 54.366 23.194 55.092 L 28.264 60.588 C 30.262 62.754 28.27 66.197 25.402 65.55 L 18.106 63.905 C 17.14 63.689 16.138 63.96 15.412 64.626 L 9.916 69.695 C 7.75 71.693 4.306 69.702 4.954 66.834 L 6.598 59.538 C 6.814 58.572 6.544 57.57 5.878 56.844 L 0.808 51.348 C -1.19 49.182 0.802 45.738 3.67 46.386 L 10.966 48.029 C 11.932 48.245 12.934 47.976 13.66 47.31 L 19.156 42.239 Z M 51.845 1.828 C 56.75 -2.693 64.549 1.815 63.089 8.321 L 63.089 8.322 L 60.761 18.672 L 60.76 18.675 C 60.557 19.568 60.809 20.511 61.432 21.186 L 61.433 21.186 L 68.619 28.985 C 73.071 33.814 68.773 41.449 62.431 40.292 L 62.127 40.23 L 51.776 37.902 L 51.773 37.901 C 50.88 37.699 49.938 37.951 49.264 38.573 L 49.263 38.574 L 41.463 45.762 C 36.557 50.284 28.757 45.776 30.218 39.269 L 30.219 39.269 L 32.546 28.918 L 32.547 28.915 C 32.749 28.022 32.497 27.08 31.875 26.405 L 31.875 26.404 L 24.687 18.604 C 20.165 13.699 24.673 5.898 31.18 7.359 L 31.181 7.36 L 41.53 9.688 L 41.533 9.688 C 42.427 9.891 43.369 9.639 44.044 9.017 L 51.845 1.828 Z M 59.187 7.444 C 59.788 4.761 56.574 2.91 54.556 4.77 L 54.555 4.77 L 46.755 11.958 C 45.114 13.471 42.83 14.082 40.652 13.59 L 30.303 11.263 L 30.303 11.262 C 27.703 10.679 25.883 13.678 27.464 15.701 L 27.628 15.894 L 34.815 23.693 L 35.089 24.009 C 36.4 25.619 36.909 27.754 36.448 29.795 L 36.449 29.796 L 34.121 40.146 C 33.519 42.83 36.734 44.682 38.752 42.821 L 38.752 42.82 L 46.552 35.633 L 46.867 35.359 C 48.477 34.048 50.613 33.539 52.653 34 L 52.654 34 L 63.005 36.328 L 63.004 36.328 C 65.688 36.93 67.54 33.716 65.68 31.697 L 65.679 31.696 L 58.491 23.896 C 56.978 22.255 56.366 19.969 56.859 17.791 L 59.187 7.444 Z" fill="currentColor" fill-rule="nonzero"></path>
</svg>