<svg xmlns="http://www.w3.org/2000/svg" width="74.374" height="67.339" viewBox="0 0 74.374 67.339" fill="none">
  <path d="M 20.789 36.972 C 21.848 36.659 22.961 37.264 23.273 38.323 C 23.586 39.382 22.98 40.495 21.921 40.808 C 12.999 43.44 6.036 50.86 4.064 60.023 C 3.692 61.754 4.983 63.339 6.69 63.339 L 9.918 63.339 C 11.022 63.339 11.918 64.234 11.918 65.339 C 11.918 66.443 11.022 67.339 9.918 67.339 L 6.69 67.339 C 2.369 67.339 -0.74 63.339 0.154 59.182 C 2.437 48.573 10.476 40.014 20.789 36.972 Z M 45.309 35.777 C 59.432 35.778 71.359 45.88 74.221 59.181 C 75.115 63.338 72.006 67.338 67.685 67.338 L 22.934 67.338 C 18.612 67.338 15.503 63.338 16.397 59.181 C 19.259 45.88 31.185 35.777 45.309 35.777 Z M 45.309 39.777 C 33.121 39.777 22.784 48.514 20.308 60.022 C 19.935 61.753 21.226 63.338 22.934 63.338 L 67.685 63.338 C 69.392 63.338 70.682 61.753 70.31 60.022 C 67.834 48.514 57.496 39.778 45.309 39.777 Z M 45.31 0 C 53.981 0 60.799 7.451 60.799 16.37 C 60.799 25.29 53.981 32.739 45.31 32.739 C 36.638 32.739 29.82 25.29 29.819 16.37 C 29.819 7.45 36.638 0 45.31 0 Z M 26.81 0.159 C 27.902 -0.003 28.92 0.752 29.082 1.845 C 29.244 2.937 28.489 3.954 27.396 4.116 C 21.894 4.932 17.491 10.022 17.49 16.369 C 17.49 22.739 21.924 27.842 27.454 28.631 C 28.547 28.787 29.307 29.8 29.151 30.894 C 28.995 31.987 27.982 32.747 26.889 32.591 C 19.229 31.497 13.49 24.565 13.49 16.369 C 13.491 8.202 19.189 1.289 26.81 0.159 Z M 45.31 4 C 39.081 4 33.819 9.418 33.819 16.37 C 33.82 23.322 39.081 28.739 45.31 28.739 C 51.538 28.739 56.799 23.322 56.799 16.37 C 56.799 9.418 51.538 4 45.31 4 Z" fill="currentColor" fill-rule="nonzero"></path>
</svg>