<svg xmlns="http://www.w3.org/2000/svg" width="74.620" height="42.955" viewBox="0 0 74.620 42.955" fill="none">
  <path d="M 65.01 -9.826 C 65.791 -10.607 67.057 -10.607 67.838 -9.826 L 78.453 0.789 L 78.591 0.94 C 79.231 1.726 79.185 2.885 78.453 3.617 L 67.838 14.232 C 67.057 15.013 65.791 15.013 65.01 14.232 C 64.229 13.451 64.229 12.184 65.01 11.403 L 72.413 4 L 67.222 4 L 66.847 4.004 C 62.984 4.085 59.433 5.418 56.577 7.614 C 56.559 7.628 56.538 7.64 56.52 7.653 C 56.475 7.696 56.429 7.738 56.38 7.776 C 54.163 9.517 51.925 12.206 50.048 14.896 C 48.178 17.576 46.77 20.106 46.177 21.414 C 45.575 22.743 44.096 25.878 42.124 29.193 C 40.185 32.453 37.636 36.122 34.845 38.323 C 34.758 38.392 34.666 38.449 34.572 38.501 C 30.948 41.292 26.405 42.955 21.478 42.955 C 9.616 42.955 0 33.339 0 21.478 C 0 9.616 9.616 0 21.478 0 C 28.73 0 35.144 3.597 39.029 9.096 L 41.052 11.925 C 41.694 12.823 41.486 14.072 40.588 14.715 C 39.689 15.357 38.44 15.149 37.798 14.251 L 35.775 11.423 L 35.769 11.412 C 32.601 6.924 27.38 4 21.478 4 C 11.825 4 4 11.825 4 21.478 C 4 31.13 11.825 38.955 21.478 38.955 C 26.003 38.955 30.123 37.238 33.228 34.416 C 33.268 34.38 33.309 34.346 33.352 34.313 C 35.21 32.521 37.072 29.863 38.687 27.148 C 40.553 24.009 41.963 21.021 42.533 19.764 C 43.25 18.183 44.792 15.438 46.767 12.607 C 48.734 9.788 51.237 6.728 53.909 4.63 C 53.932 4.612 53.956 4.596 53.979 4.579 C 54.029 4.532 54.083 4.486 54.139 4.443 C 57.648 1.745 62.018 0.105 66.762 0.005 L 67.222 0 L 72.009 0 L 65.01 -6.998 C 64.229 -7.779 64.229 -9.045 65.01 -9.826 Z M 47.511 28.088 C 48.362 27.384 49.623 27.503 50.327 28.354 L 52.658 31.17 C 56.721 35.605 61.407 38.955 67.222 38.955 L 72.62 38.955 C 73.724 38.955 74.62 39.851 74.62 40.955 C 74.62 42.06 73.725 42.955 72.62 42.955 L 67.222 42.955 C 59.71 42.955 54.017 38.585 49.679 33.842 L 49.646 33.805 L 49.614 33.767 L 47.245 30.903 C 46.541 30.052 46.66 28.792 47.511 28.088 Z" fill="currentColor" fill-rule="nonzero"></path>
</svg>