<svg xmlns="http://www.w3.org/2000/svg" width="68" height="64.319" viewBox="0 0 68 64.319" fill="none">
  <path d="M 54 20.319 C 59.523 20.319 64 24.797 64 30.319 L 64 32.819 C 66.209 32.819 68 34.61 68 36.819 L 68 47.819 C 68 50.028 66.209 51.819 64 51.819 L 64 54.319 C 64 59.842 59.523 64.319 54 64.319 L 4 64.319 C 1.791 64.319 0 62.528 0 60.319 L 0 24.319 C 0 22.11 1.791 20.319 4 20.319 L 54 20.319 Z M 4 60.319 L 54 60.319 C 57.314 60.319 60 57.633 60 54.319 L 60 51.819 L 48 51.819 C 45.86 51.819 44.112 50.139 44.005 48.025 L 44 47.819 L 44 36.819 C 44 34.61 45.791 32.819 48 32.819 L 60 32.819 L 60 30.319 C 60 27.006 57.314 24.319 54 24.319 L 4 24.319 L 4 60.319 Z M 48 47.819 L 64 47.819 L 64 36.819 L 48 36.819 L 48 47.819 Z M 53.5 39.571 C 54.881 39.571 56 40.691 56 42.071 C 56 43.452 54.881 44.571 53.5 44.571 C 52.119 44.571 51 43.452 51 42.071 C 51 40.691 52.119 39.571 53.5 39.571 Z M 43.29 0.206 C 46.491 -0.651 49.781 1.248 50.639 4.448 L 53.488 15.085 C 53.774 16.152 53.141 17.248 52.074 17.534 C 51.007 17.82 49.911 17.187 49.625 16.12 L 46.774 5.483 C 46.488 4.417 45.392 3.784 44.325 4.069 L 14.249 12.128 C 13.255 12.394 12.666 13.416 12.932 14.41 L 13.112 15.085 C 13.398 16.152 12.765 17.248 11.698 17.534 C 10.631 17.82 9.535 17.187 9.249 16.12 L 9.068 15.445 C 8.231 12.318 10.086 9.103 13.214 8.265 L 43.29 0.206 Z" fill="currentColor" fill-rule="nonzero"></path>
</svg>